<?xml version="1.0" encoding="UTF-8" standalone="no"?>
<svg
   xmlns:dc="http://purl.org/dc/elements/1.1/"
   xmlns:cc="http://creativecommons.org/ns#"
   xmlns:rdf="http://www.w3.org/1999/02/22-rdf-syntax-ns#"
   xmlns:svg="http://www.w3.org/2000/svg"
   xmlns="http://www.w3.org/2000/svg"
   id="svg27794"
   version="1.1"
   viewBox="0 0 26.458324 26.458336"
   height="26.458336mm"
   width="26.458324mm">
  <defs
     id="defs27788" />
  <metadata
     id="metadata27791">
    <rdf:RDF>
      <cc:Work
         rdf:about="">
        <dc:format>image/svg+xml</dc:format>
        <dc:type
           rdf:resource="http://purl.org/dc/dcmitype/StillImage" />
        <dc:title></dc:title>
      </cc:Work>
    </rdf:RDF>
  </metadata>
  <g
     transform="translate(-95.681887,-122.69929)"
     id="layer1">
    <path
       d="m 108.73118,144.47364 c -4.71186,-0.0985 -8.46538,-4.01274 -8.36603,-8.72537 0.0973,-4.71178 4.01112,-8.46543 8.72469,-8.36652 4.71209,0.0986 8.46475,4.01275 8.36751,8.72538 -0.0994,4.71222 -4.01237,8.46585 -8.72617,8.36651 z m 13.34558,-7.24717 c 0.0927,-0.95321 0.0846,-1.91348 -0.0294,-2.87439 l -2.22908,-0.53306 c -0.11701,-0.58429 -0.28265,-1.16708 -0.49118,-1.73815 l 1.63346,-1.61169 c -0.19634,-0.43358 -0.41795,-0.86116 -0.66587,-1.27846 -0.24517,-0.41582 -0.51264,-0.81382 -0.79883,-1.19553 l -2.19908,0.65703 c -0.39979,-0.46111 -0.82989,-0.88444 -1.28944,-1.26623 l 0.60876,-2.21035 c -0.78708,-0.5622 -1.6255,-1.0332 -2.50486,-1.41047 l -1.57904,1.67 c -0.56888,-0.19714 -1.15277,-0.3469 -1.74433,-0.44985 l -0.58365,-2.22428 c -0.9508,-0.0921 -1.91281,-0.0819 -2.86857,0.0355 l -0.53767,2.22797 c -0.58506,0.11334 -1.16365,0.27826 -1.73428,0.49004 l -1.61329,-1.63208 c -0.42991,0.19429 -0.86131,0.41321 -1.27798,0.66241 -0.41684,0.24558 -0.8151,0.51389 -1.19563,0.79668 l 0.65476,2.20294 c -0.45947,0.4003 -0.88296,0.82964 -1.26496,1.28819 l -2.210393,-0.6067 c -0.563563,0.78423 -1.03331,1.62331 -1.410366,2.50051 l 1.668345,1.5805 c -0.196744,0.5695 -0.342165,1.15336 -0.446458,1.74494 l -2.222024,0.58315 c -0.09392,0.95113 -0.08434,1.91331 0.02985,2.87224 l 2.23205,0.53102 c 0.114191,0.58746 0.277508,1.16708 0.486094,1.74088 l -1.631976,1.61108 c 0.195321,0.434 0.414692,0.85946 0.6629,1.27457 0.247925,0.41878 0.514254,0.81854 0.79862,1.19794 l 2.202048,-0.65542 c 0.39871,0.45947 0.83209,0.88253 1.2883,1.2639 l -0.60544,2.21287 c 0.78574,0.56123 1.62206,1.03444 2.49837,1.40675 l 1.58251,-1.66704 c 0.57057,0.19836 1.14885,0.34641 1.74583,0.44774 l 0.58174,2.22386 c 0.94932,0.0901 1.91321,0.0842 2.87202,-0.0306 l 0.53097,-2.23094 c 0.5866,-0.11321 1.16686,-0.27835 1.73744,-0.48961 l 1.61874,1.63294 c 0.42984,-0.19329 0.85619,-0.41491 1.27306,-0.66205 0.41793,-0.2466 0.81315,-0.51403 1.19496,-0.80052 l -0.65454,-2.19901 c 0.45991,-0.39954 0.88316,-0.83159 1.26474,-1.28872 l 2.2121,0.60616 c 0.56229,-0.78559 1.03522,-1.62444 1.40738,-2.50136 l -1.66833,-1.58242 c 0.19532,-0.56575 0.34712,-1.14805 0.44965,-1.74217 l 2.222,-0.58067"
       style="fill:#55ddff;fill-opacity:1;fill-rule:nonzero;stroke:none;stroke-width:0.00707546"
       id="path23019-4-8" />
    <ellipse
       ry="9.1137581"
       rx="9.1139421"
       cy="135.92854"
       cx="108.91102"
       id="path27328-3-6"
       style="opacity:1;fill:#55ddff;fill-opacity:1;stroke:none;stroke-width:5.68921852;stroke-linecap:round;stroke-linejoin:miter;stroke-miterlimit:4;stroke-dasharray:none;stroke-opacity:1;paint-order:stroke fill markers" />
    <text
       id="text817-5-3-4-4-0-4-4-2-1-2-9-2-3"
       y="139.13499"
       x="99.350487"
       style="font-style:normal;font-variant:normal;font-weight:bold;font-stretch:normal;font-size:9.87255859px;line-height:1.25;font-family:Quicksand;-inkscape-font-specification:'Quicksand, Bold';font-variant-ligatures:normal;font-variant-caps:normal;font-variant-numeric:normal;font-feature-settings:normal;text-align:start;letter-spacing:-1.0185045px;word-spacing:0px;writing-mode:lr-tb;text-anchor:start;fill:#ffffff;fill-opacity:1;stroke:none;stroke-width:0.24681392"
       xml:space="preserve"><tspan
         style="font-style:normal;font-variant:normal;font-weight:bold;font-stretch:normal;font-size:9.87255859px;font-family:Quicksand;-inkscape-font-specification:'Quicksand, Bold';font-variant-ligatures:normal;font-variant-caps:normal;font-variant-numeric:normal;font-feature-settings:normal;text-align:start;letter-spacing:-1.0185045px;writing-mode:lr-tb;text-anchor:start;fill:#ffffff;fill-opacity:1;stroke-width:0.24681392"
         y="139.13499"
         x="99.350487"
         id="tspan815-0-8-4-1-5-8-0-9-0-2-0-1-0">P</tspan></text>
    <text
       id="text817-5-3-4-4-0-4-4-2-1-2-9-2-3-0"
       y="138.98181"
       x="104.77354"
       style="font-style:normal;font-variant:normal;font-weight:bold;font-stretch:normal;font-size:9.87255859px;line-height:1.25;font-family:Quicksand;-inkscape-font-specification:'Quicksand, Bold';font-variant-ligatures:normal;font-variant-caps:normal;font-variant-numeric:normal;font-feature-settings:normal;text-align:start;letter-spacing:-1.0185045px;word-spacing:0px;writing-mode:lr-tb;text-anchor:start;fill:#ffffff;fill-opacity:1;stroke:none;stroke-width:0.24681392"
       xml:space="preserve"><tspan
         style="font-style:normal;font-variant:normal;font-weight:bold;font-stretch:normal;font-size:9.87255859px;font-family:Quicksand;-inkscape-font-specification:'Quicksand, Bold';font-variant-ligatures:normal;font-variant-caps:normal;font-variant-numeric:normal;font-feature-settings:normal;text-align:start;letter-spacing:-1.0185045px;writing-mode:lr-tb;text-anchor:start;fill:#ffffff;fill-opacity:1;stroke-width:0.24681392"
         y="138.98181"
         x="104.77354"
         id="tspan815-0-8-4-1-5-8-0-9-0-2-0-1-0-5"><tspan
           style="letter-spacing:-1.52775645px;fill:#ffffff;stroke-width:0.24681392"
           id="tspan9695-2-4">W</tspan></tspan></text>
    <text
       id="text817-5-3-4-4-0-4-4-2-1-2-9-2-3-6"
       y="139.08708"
       x="112.25497"
       style="font-style:normal;font-variant:normal;font-weight:bold;font-stretch:normal;font-size:9.87255859px;line-height:1.25;font-family:Quicksand;-inkscape-font-specification:'Quicksand, Bold';font-variant-ligatures:normal;font-variant-caps:normal;font-variant-numeric:normal;font-feature-settings:normal;text-align:start;letter-spacing:-1.0185045px;word-spacing:0px;writing-mode:lr-tb;text-anchor:start;fill:#ffffff;fill-opacity:1;stroke:none;stroke-width:0.24681392"
       xml:space="preserve"><tspan
         style="font-style:normal;font-variant:normal;font-weight:bold;font-stretch:normal;font-size:9.87255859px;font-family:Quicksand;-inkscape-font-specification:'Quicksand, Bold';font-variant-ligatures:normal;font-variant-caps:normal;font-variant-numeric:normal;font-feature-settings:normal;text-align:start;letter-spacing:-1.0185045px;writing-mode:lr-tb;text-anchor:start;fill:#ffffff;fill-opacity:1;stroke-width:0.24681392"
         y="139.08708"
         x="112.25497"
         id="tspan815-0-8-4-1-5-8-0-9-0-2-0-1-0-9"><tspan
           style="letter-spacing:-1.52775645px;fill:#ffffff;stroke-width:0.24681392"
           id="tspan9695-2-2">A</tspan></tspan></text>
  </g>
</svg>
