<?xml version="1.0" encoding="UTF-8" standalone="no"?>
<svg
   xmlns:dc="http://purl.org/dc/elements/1.1/"
   xmlns:cc="http://creativecommons.org/ns#"
   xmlns:rdf="http://www.w3.org/1999/02/22-rdf-syntax-ns#"
   xmlns:svg="http://www.w3.org/2000/svg"
   xmlns="http://www.w3.org/2000/svg"
   id="svg29216"
   version="1.1"
   viewBox="0 0 13.229172 13.22916"
   height="13.22916mm"
   width="13.229172mm">
  <defs
     id="defs29210" />
  <metadata
     id="metadata29213">
    <rdf:RDF>
      <cc:Work
         rdf:about="">
        <dc:format>image/svg+xml</dc:format>
        <dc:type
           rdf:resource="http://purl.org/dc/dcmitype/StillImage" />
        <dc:title></dc:title>
      </cc:Work>
    </rdf:RDF>
  </metadata>
  <g
     transform="translate(-69.790171,-155.01623)"
     id="layer1">
    <path
       d="m 76.315179,165.90345 c -2.355802,-0.0493 -4.232483,-2.00638 -4.18281,-4.36269 0.04869,-2.35589 2.005471,-4.23272 4.362135,-4.18326 2.355924,0.0493 4.232174,2.00638 4.183549,4.36269 -0.04977,2.35611 -2.006087,4.23292 -4.362874,4.18326 z m 6.672469,-3.6236 c 0.04638,-0.47659 0.04237,-0.95673 -0.01541,-1.43719 l -1.114483,-0.26653 c -0.05855,-0.29215 -0.141285,-0.58354 -0.245577,-0.86908 l 0.816678,-0.80583 c -0.09815,-0.21681 -0.208954,-0.43059 -0.33292,-0.63924 -0.122488,-0.20791 -0.2563,-0.4069 -0.399387,-0.59776 l -1.099478,0.32851 c -0.199894,-0.23054 -0.414933,-0.44222 -0.644702,-0.63312 l 0.304371,-1.10516 c -0.393517,-0.2811 -0.812702,-0.51661 -1.252364,-0.70524 l -0.789483,0.835 c -0.284434,-0.0986 -0.576355,-0.17344 -0.872129,-0.22492 l -0.291813,-1.11214 c -0.475376,-0.0461 -0.956344,-0.041 -1.434201,0.0177 l -0.268825,1.11399 c -0.292523,0.0567 -0.581794,0.13913 -0.867106,0.24501 l -0.806601,-0.81604 c -0.214946,0.0971 -0.430633,0.20661 -0.638954,0.33121 -0.208414,0.1228 -0.407538,0.25694 -0.597787,0.39835 l 0.327358,1.10145 c -0.229722,0.20016 -0.441448,0.41484 -0.632437,0.6441 l -1.105147,-0.30334 c -0.281768,0.39211 -0.516637,0.81164 -0.705145,1.25024 l 0.834119,0.79026 c -0.0983,0.28475 -0.171067,0.57668 -0.223205,0.87246 l -1.110956,0.29158 c -0.04699,0.47557 -0.04222,0.95666 0.01541,1.43612 l 1.115979,0.26552 c 0.05716,0.29372 0.138819,0.58354 0.243034,0.87043 l -0.815953,0.80554 c 0.09768,0.21701 0.207335,0.42973 0.331441,0.6373 0.123874,0.20939 0.257101,0.40926 0.399279,0.59896 l 1.100972,-0.32771 c 0.199339,0.22973 0.416027,0.44126 0.644116,0.63195 l -0.302706,1.10644 c 0.392854,0.28061 0.810992,0.51721 1.249128,0.70336 l 0.791209,-0.83351 c 0.285281,0.0992 0.574398,0.1732 0.872883,0.22388 l 0.290859,1.11191 c 0.474636,0.0451 0.956559,0.0421 1.435941,-0.0154 l 0.265467,-1.11547 c 0.293277,-0.0565 0.583396,-0.13913 0.868677,-0.2448 l 0.809328,0.81647 c 0.214916,-0.0966 0.428075,-0.20746 0.636489,-0.33102 0.208954,-0.12326 0.406567,-0.25701 0.597463,-0.40026 l -0.32725,-1.09951 c 0.229938,-0.19978 0.441557,-0.41579 0.632329,-0.64436 l 1.105995,0.30308 c 0.281137,-0.3928 0.517592,-0.81222 0.70365,-1.25069 l -0.834118,-0.7912 c 0.09768,-0.28287 0.173547,-0.57403 0.224822,-0.87109 l 1.110941,-0.29033"
       style="fill:#55ddff;fill-opacity:1;fill-rule:nonzero;stroke:none;stroke-width:0.00353763"
       id="path23019-4-8-5-7" />
    <ellipse
       ry="4.5568776"
       rx="4.556746"
       cy="161.63095"
       cx="76.405151"
       id="path27328-3-6-4-2"
       style="opacity:1;fill:#55ddff;fill-opacity:1;stroke:none;stroke-width:2.84453869;stroke-linecap:round;stroke-linejoin:miter;stroke-miterlimit:4;stroke-dasharray:none;stroke-opacity:1;paint-order:stroke fill markers" />
    <text
       transform="scale(0.99998551,1.0000145)"
       id="text817-5-3-4-4-0-6-8"
       y="162.89136"
       x="72.216827"
       style="font-style:normal;font-variant:normal;font-weight:bold;font-stretch:normal;font-size:4.8223052px;line-height:1.25;font-family:Manjari;-inkscape-font-specification:'Manjari, Bold';font-variant-ligatures:normal;font-variant-caps:normal;font-variant-numeric:normal;font-feature-settings:normal;text-align:start;letter-spacing:0px;word-spacing:0px;writing-mode:lr-tb;text-anchor:start;fill:#ffffff;fill-opacity:1;stroke:none;stroke-width:0.12055761"
       xml:space="preserve"><tspan
         style="font-style:normal;font-variant:normal;font-weight:bold;font-stretch:normal;font-size:4.8223052px;font-family:Manjari;-inkscape-font-specification:'Manjari, Bold';font-variant-ligatures:normal;font-variant-caps:normal;font-variant-numeric:normal;font-feature-settings:normal;text-align:start;letter-spacing:-0.24341318px;writing-mode:lr-tb;text-anchor:start;fill:#ffffff;stroke-width:0.12055761"
         y="162.89136"
         x="72.216827"
         id="tspan815-0-8-4-1-5-9-2">pwa</tspan></text>
  </g>
</svg>
